<svg height="512pt" viewBox="0 0 512 512" width="512pt" xmlns="http://www.w3.org/2000/svg"><path d="m437.019531 74.980469c-48.351562-48.351563-112.640625-74.980469-181.019531-74.980469s-132.667969 26.628906-181.019531 74.980469c-48.351563 48.351562-74.980469 112.640625-74.980469 181.019531s26.628906 132.667969 74.980469 181.019531c48.351562 48.351563 112.640625 74.980469 181.019531 74.980469 46.8125 0 92.617188-12.757812 132.460938-36.894531 9.449218-5.722657 12.46875-18.019531 6.746093-27.46875-5.722656-9.449219-18.023437-12.464844-27.46875-6.742188-33.59375 20.347657-72.230469 31.105469-111.738281 31.105469-54.699219 0-104.707031-20.449219-142.804688-54.09375 41.824219-63.773438 91.617188-112.160156 151.949219-147.671875 9.519531-5.601563 12.695313-17.859375 7.089844-27.378906-5.601563-9.519531-17.859375-12.695313-27.378906-7.089844-34.625 20.378906-66.765625 45.304687-95.539063 74.085937-2.859375 2.859376-5.6875 5.78125-8.5 8.734376-2.171875-7.042969-3.761718-15.019532-3.816406-23.605469-.148438-23.804688 10.957031-46.523438 33.957031-69.457031 51.984375-51.835938 137.328125-62.136719 175.628907-64.082032-1.894532 38.144532-12.136719 123.042969-64.269532 175.027344-26.675781 26.597656-49.558594 36.144531-74.199218 30.960938-10.808594-2.273438-21.414063 4.640624-23.6875 15.449218-2.277344 10.808594 4.640624 21.417969 15.449218 23.691406 6.96875 1.464844 13.917969 2.199219 20.832032 2.199219 14.578124 0 29-3.257812 43.0625-9.75 15.605468-7.199219 30.90625-18.394531 46.785156-34.226562 76.695312-76.476563 76.78125-204.964844 76.410156-222.625.007812-.148438.015625-.296875.019531-.445313.363281-11.007812-8.242187-20.238281-19.25-20.644531-5.859375-.214844-144.316406-4.355469-225.023437 76.121094-30.550782 30.464843-45.933594 63.449219-45.710938 98.035156.152344 24.25 7.96875 43.941406 14.332032 57.167969-9.078126 11.347656-17.832032 23.203125-26.222657 35.542968-28.265625-36.519531-45.113281-82.296874-45.113281-131.945312 0-119.101562 96.898438-216 216-216s216 96.898438 216 216c0 42.589844-12.664062 84.042969-36.625 119.882812-6.140625 9.183594-3.671875 21.605469 5.511719 27.742188 9.179687 6.140625 21.601562 3.675781 27.742187-5.507812 28.371094-42.441407 43.371094-91.585938 43.371094-142.117188 0-68.378906-26.628906-132.667969-74.980469-181.019531zm0 0"/></svg>